<?xml version="1.0" encoding="UTF-8"?>
<svg xmlns="http://www.w3.org/2000/svg" xmlns:xlink="http://www.w3.org/1999/xlink" width="302.472441pt" height="302.472441pt" viewBox="0 0 302.472441 302.472441" version="1.1">
<g id="surface1">
<path style="fill:none;stroke-width:0.01;stroke-linecap:round;stroke-linejoin:round;stroke:rgb(100%,0%,0%);stroke-opacity:1;stroke-miterlimit:10;" d="M 0.599933 0.0000651042 C 0.599933 0.331345 0.331353 0.600063 -0.0000651042 0.600063 C -0.331345 0.600063 -0.600063 0.331345 -0.600063 0.0000651042 C -0.600063 -0.331353 -0.331345 -0.599933 -0.0000651042 -0.599933 C 0.331353 -0.599933 0.599933 -0.331353 0.599933 0.0000651042 Z " transform="matrix(28.346457,0,0,-28.346457,151.23622,151.23622)"/>
<path style="fill:none;stroke-width:0.01;stroke-linecap:round;stroke-linejoin:round;stroke:rgb(100%,0%,0%);stroke-opacity:1;stroke-miterlimit:10;" d="M 2.242692 -0.235717 L 4.574746 -0.48087 " transform="matrix(28.346457,0,0,-28.346457,151.23622,151.23622)"/>
<path style="fill:none;stroke-width:0.01;stroke-linecap:round;stroke-linejoin:round;stroke:rgb(100%,0%,0%);stroke-opacity:1;stroke-miterlimit:10;" d="M 2.242692 0.23571 L 4.574746 0.480863 " transform="matrix(28.346457,0,0,-28.346457,151.23622,151.23622)"/>
<path style="fill:none;stroke-width:0.01;stroke-linecap:round;stroke-linejoin:round;stroke:rgb(100%,0%,0%);stroke-opacity:1;stroke-miterlimit:10;" d="M 4.574746 -0.48087 C 4.60837 -0.161165 4.60837 0.161158 4.574746 0.480863 " transform="matrix(28.346457,0,0,-28.346457,151.23622,151.23622)"/>
<path style="fill:none;stroke-width:0.01;stroke-linecap:round;stroke-linejoin:round;stroke:rgb(100%,0%,0%);stroke-opacity:1;stroke-miterlimit:10;" d="M 2.242692 -0.235717 C 2.259091 -0.0790343 2.259091 0.0790267 2.242692 0.23571 " transform="matrix(28.346457,0,0,-28.346457,151.23622,151.23622)"/>
<path style="fill:none;stroke-width:0.01;stroke-linecap:round;stroke-linejoin:round;stroke:rgb(100%,0%,0%);stroke-opacity:1;stroke-miterlimit:10;" d="M 2.060102 0.91715 L 4.202262 1.871028 " transform="matrix(28.346457,0,0,-28.346457,151.23622,151.23622)"/>
<path style="fill:none;stroke-width:0.01;stroke-linecap:round;stroke-linejoin:round;stroke:rgb(100%,0%,0%);stroke-opacity:1;stroke-miterlimit:10;" d="M 1.82432 1.325462 L 3.721465 2.703776 " transform="matrix(28.346457,0,0,-28.346457,151.23622,151.23622)"/>
<path style="fill:none;stroke-width:0.01;stroke-linecap:round;stroke-linejoin:round;stroke:rgb(100%,0%,0%);stroke-opacity:1;stroke-miterlimit:10;" d="M 4.202262 1.871028 C 4.071624 2.164688 3.910394 2.44374 3.721465 2.703776 " transform="matrix(28.346457,0,0,-28.346457,151.23622,151.23622)"/>
<path style="fill:none;stroke-width:0.01;stroke-linecap:round;stroke-linejoin:round;stroke:rgb(100%,0%,0%);stroke-opacity:1;stroke-miterlimit:10;" d="M 2.060102 0.91715 C 1.996023 1.061155 1.916924 1.197994 1.82432 1.325462 " transform="matrix(28.346457,0,0,-28.346457,151.23622,151.23622)"/>
<path style="fill:none;stroke-width:0.01;stroke-linecap:round;stroke-linejoin:round;stroke:rgb(100%,0%,0%);stroke-opacity:1;stroke-miterlimit:10;" d="M 1.32547 1.824312 L 2.703784 3.721457 " transform="matrix(28.346457,0,0,-28.346457,151.23622,151.23622)"/>
<path style="fill:none;stroke-width:0.01;stroke-linecap:round;stroke-linejoin:round;stroke:rgb(100%,0%,0%);stroke-opacity:1;stroke-miterlimit:10;" d="M 0.917157 2.060094 L 1.871035 4.202255 " transform="matrix(28.346457,0,0,-28.346457,151.23622,151.23622)"/>
<path style="fill:none;stroke-width:0.01;stroke-linecap:round;stroke-linejoin:round;stroke:rgb(100%,0%,0%);stroke-opacity:1;stroke-miterlimit:10;" d="M 2.703784 3.721457 C 2.443748 3.910386 2.164695 4.071617 1.871035 4.202255 " transform="matrix(28.346457,0,0,-28.346457,151.23622,151.23622)"/>
<path style="fill:none;stroke-width:0.01;stroke-linecap:round;stroke-linejoin:round;stroke:rgb(100%,0%,0%);stroke-opacity:1;stroke-miterlimit:10;" d="M 1.32547 1.824312 C 1.198001 1.916916 1.061162 1.996016 0.917157 2.060094 " transform="matrix(28.346457,0,0,-28.346457,151.23622,151.23622)"/>
<path style="fill:none;stroke-width:0.01;stroke-linecap:round;stroke-linejoin:round;stroke:rgb(100%,0%,0%);stroke-opacity:1;stroke-miterlimit:10;" d="M 0.235717 2.242684 L 0.48087 4.574738 " transform="matrix(28.346457,0,0,-28.346457,151.23622,151.23622)"/>
<path style="fill:none;stroke-width:0.01;stroke-linecap:round;stroke-linejoin:round;stroke:rgb(100%,0%,0%);stroke-opacity:1;stroke-miterlimit:10;" d="M -0.23571 2.242684 L -0.480863 4.574738 " transform="matrix(28.346457,0,0,-28.346457,151.23622,151.23622)"/>
<path style="fill:none;stroke-width:0.01;stroke-linecap:round;stroke-linejoin:round;stroke:rgb(100%,0%,0%);stroke-opacity:1;stroke-miterlimit:10;" d="M 0.48087 4.574738 C 0.161165 4.608363 -0.161158 4.608363 -0.480863 4.574738 " transform="matrix(28.346457,0,0,-28.346457,151.23622,151.23622)"/>
<path style="fill:none;stroke-width:0.01;stroke-linecap:round;stroke-linejoin:round;stroke:rgb(100%,0%,0%);stroke-opacity:1;stroke-miterlimit:10;" d="M 0.235717 2.242684 C 0.0790343 2.259083 -0.0790267 2.259083 -0.23571 2.242684 " transform="matrix(28.346457,0,0,-28.346457,151.23622,151.23622)"/>
<path style="fill:none;stroke-width:0.01;stroke-linecap:round;stroke-linejoin:round;stroke:rgb(100%,0%,0%);stroke-opacity:1;stroke-miterlimit:10;" d="M -0.91715 2.060094 L -1.871028 4.202255 " transform="matrix(28.346457,0,0,-28.346457,151.23622,151.23622)"/>
<path style="fill:none;stroke-width:0.01;stroke-linecap:round;stroke-linejoin:round;stroke:rgb(100%,0%,0%);stroke-opacity:1;stroke-miterlimit:10;" d="M -1.325462 1.824312 L -2.703776 3.721457 " transform="matrix(28.346457,0,0,-28.346457,151.23622,151.23622)"/>
<path style="fill:none;stroke-width:0.01;stroke-linecap:round;stroke-linejoin:round;stroke:rgb(100%,0%,0%);stroke-opacity:1;stroke-miterlimit:10;" d="M -1.871028 4.202255 C -2.164688 4.071617 -2.44374 3.910386 -2.703776 3.721457 " transform="matrix(28.346457,0,0,-28.346457,151.23622,151.23622)"/>
<path style="fill:none;stroke-width:0.01;stroke-linecap:round;stroke-linejoin:round;stroke:rgb(100%,0%,0%);stroke-opacity:1;stroke-miterlimit:10;" d="M -0.91715 2.060094 C -1.061155 1.996016 -1.197994 1.916916 -1.325462 1.824312 " transform="matrix(28.346457,0,0,-28.346457,151.23622,151.23622)"/>
<path style="fill:none;stroke-width:0.01;stroke-linecap:round;stroke-linejoin:round;stroke:rgb(100%,0%,0%);stroke-opacity:1;stroke-miterlimit:10;" d="M -1.824312 1.325462 L -3.721457 2.703776 " transform="matrix(28.346457,0,0,-28.346457,151.23622,151.23622)"/>
<path style="fill:none;stroke-width:0.01;stroke-linecap:round;stroke-linejoin:round;stroke:rgb(100%,0%,0%);stroke-opacity:1;stroke-miterlimit:10;" d="M -2.060094 0.91715 L -4.202255 1.871028 " transform="matrix(28.346457,0,0,-28.346457,151.23622,151.23622)"/>
<path style="fill:none;stroke-width:0.01;stroke-linecap:round;stroke-linejoin:round;stroke:rgb(100%,0%,0%);stroke-opacity:1;stroke-miterlimit:10;" d="M -3.721457 2.703776 C -3.910386 2.44374 -4.071617 2.164688 -4.202255 1.871028 " transform="matrix(28.346457,0,0,-28.346457,151.23622,151.23622)"/>
<path style="fill:none;stroke-width:0.01;stroke-linecap:round;stroke-linejoin:round;stroke:rgb(100%,0%,0%);stroke-opacity:1;stroke-miterlimit:10;" d="M -1.824312 1.325462 C -1.916916 1.197994 -1.996016 1.061155 -2.060094 0.91715 " transform="matrix(28.346457,0,0,-28.346457,151.23622,151.23622)"/>
<path style="fill:none;stroke-width:0.01;stroke-linecap:round;stroke-linejoin:round;stroke:rgb(100%,0%,0%);stroke-opacity:1;stroke-miterlimit:10;" d="M -2.242684 0.23571 L -4.574738 0.480863 " transform="matrix(28.346457,0,0,-28.346457,151.23622,151.23622)"/>
<path style="fill:none;stroke-width:0.01;stroke-linecap:round;stroke-linejoin:round;stroke:rgb(100%,0%,0%);stroke-opacity:1;stroke-miterlimit:10;" d="M -2.242684 -0.235717 L -4.574738 -0.48087 " transform="matrix(28.346457,0,0,-28.346457,151.23622,151.23622)"/>
<path style="fill:none;stroke-width:0.01;stroke-linecap:round;stroke-linejoin:round;stroke:rgb(100%,0%,0%);stroke-opacity:1;stroke-miterlimit:10;" d="M -4.574738 0.480863 C -4.608363 0.161158 -4.608363 -0.161165 -4.574738 -0.48087 " transform="matrix(28.346457,0,0,-28.346457,151.23622,151.23622)"/>
<path style="fill:none;stroke-width:0.01;stroke-linecap:round;stroke-linejoin:round;stroke:rgb(100%,0%,0%);stroke-opacity:1;stroke-miterlimit:10;" d="M -2.242684 0.23571 C -2.259083 0.0790267 -2.259083 -0.0790343 -2.242684 -0.235717 " transform="matrix(28.346457,0,0,-28.346457,151.23622,151.23622)"/>
<path style="fill:none;stroke-width:0.01;stroke-linecap:round;stroke-linejoin:round;stroke:rgb(100%,0%,0%);stroke-opacity:1;stroke-miterlimit:10;" d="M -2.060094 -0.917157 L -4.202255 -1.871035 " transform="matrix(28.346457,0,0,-28.346457,151.23622,151.23622)"/>
<path style="fill:none;stroke-width:0.01;stroke-linecap:round;stroke-linejoin:round;stroke:rgb(100%,0%,0%);stroke-opacity:1;stroke-miterlimit:10;" d="M -1.824312 -1.32547 L -3.721457 -2.703784 " transform="matrix(28.346457,0,0,-28.346457,151.23622,151.23622)"/>
<path style="fill:none;stroke-width:0.01;stroke-linecap:round;stroke-linejoin:round;stroke:rgb(100%,0%,0%);stroke-opacity:1;stroke-miterlimit:10;" d="M -4.202255 -1.871035 C -4.071617 -2.164695 -3.910386 -2.443748 -3.721457 -2.703784 " transform="matrix(28.346457,0,0,-28.346457,151.23622,151.23622)"/>
<path style="fill:none;stroke-width:0.01;stroke-linecap:round;stroke-linejoin:round;stroke:rgb(100%,0%,0%);stroke-opacity:1;stroke-miterlimit:10;" d="M -2.060094 -0.917157 C -1.996016 -1.061162 -1.916916 -1.198001 -1.824312 -1.32547 " transform="matrix(28.346457,0,0,-28.346457,151.23622,151.23622)"/>
<path style="fill:none;stroke-width:0.01;stroke-linecap:round;stroke-linejoin:round;stroke:rgb(100%,0%,0%);stroke-opacity:1;stroke-miterlimit:10;" d="M -1.325462 -1.82432 L -2.703776 -3.721465 " transform="matrix(28.346457,0,0,-28.346457,151.23622,151.23622)"/>
<path style="fill:none;stroke-width:0.01;stroke-linecap:round;stroke-linejoin:round;stroke:rgb(100%,0%,0%);stroke-opacity:1;stroke-miterlimit:10;" d="M -0.91715 -2.060102 L -1.871028 -4.202262 " transform="matrix(28.346457,0,0,-28.346457,151.23622,151.23622)"/>
<path style="fill:none;stroke-width:0.01;stroke-linecap:round;stroke-linejoin:round;stroke:rgb(100%,0%,0%);stroke-opacity:1;stroke-miterlimit:10;" d="M -2.703776 -3.721465 C -2.44374 -3.910394 -2.164688 -4.071624 -1.871028 -4.202262 " transform="matrix(28.346457,0,0,-28.346457,151.23622,151.23622)"/>
<path style="fill:none;stroke-width:0.01;stroke-linecap:round;stroke-linejoin:round;stroke:rgb(100%,0%,0%);stroke-opacity:1;stroke-miterlimit:10;" d="M -1.325462 -1.82432 C -1.197994 -1.916924 -1.061155 -1.996023 -0.91715 -2.060102 " transform="matrix(28.346457,0,0,-28.346457,151.23622,151.23622)"/>
<path style="fill:none;stroke-width:0.01;stroke-linecap:round;stroke-linejoin:round;stroke:rgb(100%,0%,0%);stroke-opacity:1;stroke-miterlimit:10;" d="M -0.23571 -2.242692 L -0.480863 -4.574746 " transform="matrix(28.346457,0,0,-28.346457,151.23622,151.23622)"/>
<path style="fill:none;stroke-width:0.01;stroke-linecap:round;stroke-linejoin:round;stroke:rgb(100%,0%,0%);stroke-opacity:1;stroke-miterlimit:10;" d="M 0.235717 -2.242692 L 0.48087 -4.574746 " transform="matrix(28.346457,0,0,-28.346457,151.23622,151.23622)"/>
<path style="fill:none;stroke-width:0.01;stroke-linecap:round;stroke-linejoin:round;stroke:rgb(100%,0%,0%);stroke-opacity:1;stroke-miterlimit:10;" d="M -0.480863 -4.574746 C -0.161158 -4.60837 0.161165 -4.60837 0.48087 -4.574746 " transform="matrix(28.346457,0,0,-28.346457,151.23622,151.23622)"/>
<path style="fill:none;stroke-width:0.01;stroke-linecap:round;stroke-linejoin:round;stroke:rgb(100%,0%,0%);stroke-opacity:1;stroke-miterlimit:10;" d="M -0.23571 -2.242692 C -0.0790267 -2.259091 0.0790343 -2.259091 0.235717 -2.242692 " transform="matrix(28.346457,0,0,-28.346457,151.23622,151.23622)"/>
<path style="fill:none;stroke-width:0.01;stroke-linecap:round;stroke-linejoin:round;stroke:rgb(100%,0%,0%);stroke-opacity:1;stroke-miterlimit:10;" d="M 0.917157 -2.060102 L 1.871035 -4.202262 " transform="matrix(28.346457,0,0,-28.346457,151.23622,151.23622)"/>
<path style="fill:none;stroke-width:0.01;stroke-linecap:round;stroke-linejoin:round;stroke:rgb(100%,0%,0%);stroke-opacity:1;stroke-miterlimit:10;" d="M 1.32547 -1.82432 L 2.703784 -3.721465 " transform="matrix(28.346457,0,0,-28.346457,151.23622,151.23622)"/>
<path style="fill:none;stroke-width:0.01;stroke-linecap:round;stroke-linejoin:round;stroke:rgb(100%,0%,0%);stroke-opacity:1;stroke-miterlimit:10;" d="M 1.871035 -4.202262 C 2.164695 -4.071624 2.443748 -3.910394 2.703784 -3.721465 " transform="matrix(28.346457,0,0,-28.346457,151.23622,151.23622)"/>
<path style="fill:none;stroke-width:0.01;stroke-linecap:round;stroke-linejoin:round;stroke:rgb(100%,0%,0%);stroke-opacity:1;stroke-miterlimit:10;" d="M 0.917157 -2.060102 C 1.061162 -1.996023 1.198001 -1.916924 1.32547 -1.82432 " transform="matrix(28.346457,0,0,-28.346457,151.23622,151.23622)"/>
<path style="fill:none;stroke-width:0.01;stroke-linecap:round;stroke-linejoin:round;stroke:rgb(100%,0%,0%);stroke-opacity:1;stroke-miterlimit:10;" d="M 1.82432 -1.32547 L 3.721465 -2.703784 " transform="matrix(28.346457,0,0,-28.346457,151.23622,151.23622)"/>
<path style="fill:none;stroke-width:0.01;stroke-linecap:round;stroke-linejoin:round;stroke:rgb(100%,0%,0%);stroke-opacity:1;stroke-miterlimit:10;" d="M 2.060102 -0.917157 L 4.202262 -1.871035 " transform="matrix(28.346457,0,0,-28.346457,151.23622,151.23622)"/>
<path style="fill:none;stroke-width:0.01;stroke-linecap:round;stroke-linejoin:round;stroke:rgb(100%,0%,0%);stroke-opacity:1;stroke-miterlimit:10;" d="M 3.721465 -2.703784 C 3.910394 -2.443748 4.071624 -2.164695 4.202262 -1.871035 " transform="matrix(28.346457,0,0,-28.346457,151.23622,151.23622)"/>
<path style="fill:none;stroke-width:0.01;stroke-linecap:round;stroke-linejoin:round;stroke:rgb(100%,0%,0%);stroke-opacity:1;stroke-miterlimit:10;" d="M 1.82432 -1.32547 C 1.916924 -1.198001 1.996023 -1.061162 2.060102 -0.917157 " transform="matrix(28.346457,0,0,-28.346457,151.23622,151.23622)"/>
<path style="fill:none;stroke-width:0.01;stroke-linecap:round;stroke-linejoin:round;stroke:rgb(0%,0%,100%);stroke-opacity:1;stroke-miterlimit:10;" d="M 5.199962 0.0000651042 C 5.199962 2.871897 2.871904 5.199954 -0.0000651042 5.199954 C -2.871897 5.199954 -5.199954 2.871897 -5.199954 0.0000651042 C -5.199954 -2.871904 -2.871897 -5.199962 -0.0000651042 -5.199962 C 2.871904 -5.199962 5.199962 -2.871904 5.199962 0.0000651042 Z " transform="matrix(28.346457,0,0,-28.346457,151.23622,151.23622)"/>
</g>
</svg>
